<?xml version="1.0" encoding="UTF-8" standalone="no"?>
<!-- Created with Inkscape (http://www.inkscape.org/) -->

<svg
   xmlns:dc="http://purl.org/dc/elements/1.1/"
   xmlns:cc="http://creativecommons.org/ns#"
   xmlns:rdf="http://www.w3.org/1999/02/22-rdf-syntax-ns#"
   xmlns:svg="http://www.w3.org/2000/svg"
   xmlns="http://www.w3.org/2000/svg"
   xmlns:sodipodi="http://sodipodi.sourceforge.net/DTD/sodipodi-0.dtd"
   xmlns:inkscape="http://www.inkscape.org/namespaces/inkscape"
   width="1293.0312"
   height="652.69562"
   id="svg2"
   version="1.1"
   inkscape:version="0.91 r13725"
   sodipodi:docname="logo.svg"
   inkscape:export-filename="/home/michael/Dropbox/Jobs/15001_Yourcity App/city.png"
   inkscape:export-xdpi="40.537285"
   inkscape:export-ydpi="40.537285">
  <defs
     id="defs4" />
  <sodipodi:namedview
     id="base"
     pagecolor="#ffffff"
     bordercolor="#666666"
     borderopacity="1.0"
     inkscape:pageopacity="0.0"
     inkscape:pageshadow="2"
     inkscape:zoom="0.7"
     inkscape:cx="740.5791"
     inkscape:cy="405.70181"
     inkscape:document-units="px"
     inkscape:current-layer="layer1"
     showgrid="false"
     fit-margin-top="0"
     fit-margin-left="0"
     fit-margin-right="0"
     fit-margin-bottom="0"
     inkscape:window-width="1920"
     inkscape:window-height="1056"
     inkscape:window-x="0"
     inkscape:window-y="24"
     inkscape:window-maximized="1"
     inkscape:snap-global="true"
     inkscape:snap-bbox="true"
     inkscape:bbox-paths="true"
     inkscape:bbox-nodes="true" />
  <metadata
     id="metadata7">
    <rdf:RDF>
      <cc:Work
         rdf:about="">
        <dc:format>image/svg+xml</dc:format>
        <dc:type
           rdf:resource="http://purl.org/dc/dcmitype/StillImage" />
        <dc:title></dc:title>
      </cc:Work>
    </rdf:RDF>
  </metadata>
  <g
     inkscape:groupmode="layer"
     id="layer3"
     inkscape:label="grid"
     style="display:none"
     transform="translate(-22.05567,-2944.1094)">
    <path
       style="fill:#000000;stroke-width:19.89999962;stroke-linejoin:round;stroke-miterlimit:4;stroke-dasharray:none"
       d="m 1015.7188,3234.7188 c 0.2679,3.873 6.3781,3.4831 12.4374,0 l -12.4374,0 z"
       id="path4127"
       inkscape:export-filename="/home/michael/Dropbox/Jobs/15001_Yourcity App/city.png"
       inkscape:export-xdpi="41.780567"
       inkscape:export-ydpi="41.780567"
       inkscape:connector-curvature="0" />
    <path
       inkscape:connector-curvature="0"
       style="display:inline;fill:#000000;stroke-width:19.89999962;stroke-linejoin:round;stroke-miterlimit:4;stroke-dasharray:none"
       d="m 2400.136,3687.5219 0,2.6642 c 0.5248,2.6056 1.1186,5.0303 1.7813,7.3358 l 963.0312,0 c 0.7797,-3.3034 4.363,-6.6353 4.7805,-10 z"
       id="path4117-7"
       sodipodi:nodetypes="cccccc"
       inkscape:export-filename="/home/michael/Dropbox/Jobs/15001_Yourcity App/city.png"
       inkscape:export-xdpi="41.780567"
       inkscape:export-ydpi="41.780567" />
    <path
       inkscape:connector-curvature="0"
       style="display:inline;fill:#000000;stroke-width:19.89999962;stroke-linejoin:round;stroke-miterlimit:4;stroke-dasharray:none"
       d="m 2400.136,3618.2095 0,8.5624 968.2813,0 c 0.5939,-2.9172 1.3614,-5.7827 2.4374,-8.5624 l -970.7187,0 z"
       id="path4129-9"
       inkscape:export-filename="/home/michael/Dropbox/Jobs/15001_Yourcity App/city.png"
       inkscape:export-xdpi="41.780567"
       inkscape:export-ydpi="41.780567" />
    <path
       inkscape:connector-curvature="0"
       style="display:inline;fill:#000000;stroke-width:19.89999962;stroke-linejoin:round;stroke-miterlimit:4;stroke-dasharray:none"
       d="m 2400.136,3546.0532 0,10 1255.4687,0 0,-10 -1255.4687,0 z"
       id="path4135-5"
       inkscape:export-filename="/home/michael/Dropbox/Jobs/15001_Yourcity App/city.png"
       inkscape:export-xdpi="41.780567"
       inkscape:export-ydpi="41.780567" />
    <path
       inkscape:connector-curvature="0"
       style="display:inline;fill:#000000;stroke-width:19.89999962;stroke-linejoin:round;stroke-miterlimit:4;stroke-dasharray:none"
       d="m 2400.136,3475.3032 0,10 1255.4687,0 0,-10 -1255.4687,0 z"
       id="path4141-4-5"
       inkscape:export-filename="/home/michael/Dropbox/Jobs/15001_Yourcity App/city.png"
       inkscape:export-xdpi="41.780567"
       inkscape:export-ydpi="41.780567" />
    <path
       style="display:inline;fill:#000000;stroke-width:19.89999962;stroke-linejoin:round;stroke-miterlimit:4;stroke-dasharray:none"
       d="m 3374.9173,3618.2095 c 0.2679,3.873 6.3781,3.4831 12.4374,0 l -12.4374,0 z"
       id="path4127-1"
       inkscape:export-filename="/home/michael/Dropbox/Jobs/15001_Yourcity App/city.png"
       inkscape:export-xdpi="41.780567"
       inkscape:export-ydpi="41.780567"
       inkscape:connector-curvature="0" />
    <path
       style="display:inline;fill:#000000;stroke-width:19.89999962;stroke-linejoin:round;stroke-miterlimit:4;stroke-dasharray:none"
       d="m 3441.953,3616.7719 c 1.6881,3.0911 3.7179,6.4378 5.1651,10 l 208.4866,0 0,-10 z"
       id="path4123-5"
       inkscape:connector-curvature="0"
       sodipodi:nodetypes="ccccc"
       inkscape:export-filename="/home/michael/Dropbox/Jobs/15001_Yourcity App/city.png"
       inkscape:export-xdpi="41.780567"
       inkscape:export-ydpi="41.780567" />
    <path
       style="display:inline;fill:#000000;stroke-width:19.89999962;stroke-linejoin:round;stroke-miterlimit:4;stroke-dasharray:none"
       d="m 3467.3242,3687.5219 c 1.3316,3.6355 6.0058,6.9431 7.8431,10 l 180.4374,0 0,-10 z"
       id="path4113-4"
       inkscape:connector-curvature="0"
       sodipodi:nodetypes="ccccc"
       inkscape:export-filename="/home/michael/Dropbox/Jobs/15001_Yourcity App/city.png"
       inkscape:export-xdpi="41.780567"
       inkscape:export-ydpi="41.780567" />
    <path
       style="display:inline;fill:#000000;stroke-width:19.89999962;stroke-linejoin:round;stroke-miterlimit:4;stroke-dasharray:none"
       d="m 2782.26,3758.2719 c 11.8473,1.4462 76.1751,5.2895 87.5254,10.5051 l 479.9131,-0.5051 c -3.0291,-3.2788 -5.5386,-6.6062 -7.5312,-10 z"
       id="path4103-2"
       inkscape:connector-curvature="0"
       sodipodi:nodetypes="ccccc"
       inkscape:export-filename="/home/michael/Dropbox/Jobs/15001_Yourcity App/city.png"
       inkscape:export-xdpi="41.780567"
       inkscape:export-ydpi="41.780567" />
    <path
       style="display:inline;fill:#000000;stroke-width:19.89999962;stroke-linejoin:round;stroke-miterlimit:4;stroke-dasharray:none"
       d="m 3550.453,3758.2719 c 1.9217,2.6796 9.0517,6.1326 10.183,10 l 49.4063,0 c 1.3927,-3.3792 6.4076,-6.7218 7.9151,-10 z"
       id="path4099-2"
       inkscape:connector-curvature="0"
       sodipodi:nodetypes="ccccc"
       inkscape:export-filename="/home/michael/Dropbox/Jobs/15001_Yourcity App/city.png"
       inkscape:export-xdpi="41.780567"
       inkscape:export-ydpi="41.780567" />
    <path
       style="display:inline;fill:#000000;stroke-width:19.89999962;stroke-linejoin:round;stroke-miterlimit:4;stroke-dasharray:none"
       d="m 2925.5802,3828.9907 c 0.5205,3.236 6.4428,6.58 6.6496,10 l 428.7187,0 c 1.5176,-3.2953 8.1702,-6.6238 9.3033,-10 z"
       id="path4091-8"
       inkscape:connector-curvature="0"
       sodipodi:nodetypes="ccccc"
       inkscape:export-filename="/home/michael/Dropbox/Jobs/15001_Yourcity App/city.png"
       inkscape:export-xdpi="41.780567"
       inkscape:export-ydpi="41.780567" />
    <path
       style="display:inline;fill:#000000;stroke-width:19.89999962;stroke-linejoin:round;stroke-miterlimit:4;stroke-dasharray:none"
       d="m 2928.386,3899.7407 c 0.048,3.3879 0.2471,6.7168 0.6875,10 l 305.25,0 c 4.2365,-3.9687 19.6024,-7.2065 25.4765,-10 z"
       id="path4085-7"
       inkscape:connector-curvature="0"
       sodipodi:nodetypes="ccccc"
       inkscape:export-filename="/home/michael/Dropbox/Jobs/15001_Yourcity App/city.png"
       inkscape:export-xdpi="41.780567"
       inkscape:export-ydpi="41.780567" />
    <path
       inkscape:connector-curvature="0"
       style="display:inline;fill:#000000;stroke-width:19.89999962;stroke-linejoin:round;stroke-miterlimit:4"
       d="m 2400.136,3400.5532 0,10 1255.4687,0 0,-10 -1255.4687,0 z"
       id="path4147-2-4"
       inkscape:export-filename="/home/michael/Dropbox/Jobs/15001_Yourcity App/city.png"
       inkscape:export-xdpi="41.780567"
       inkscape:export-ydpi="41.780567" />
    <path
       style="display:inline;fill:#000000;stroke-width:19.89999962;stroke-linejoin:round;stroke-miterlimit:4;stroke-dasharray:none"
       d="m 2581.1985,3349.4282 0,367.3437 c 3.3304,0.064 6.6763,0.1501 10,0.25 l 0,-367.5937 -10,0 z"
       id="path4424-7"
       inkscape:connector-curvature="0"
       inkscape:export-filename="/home/michael/Dropbox/Jobs/15001_Yourcity App/city.png"
       inkscape:export-xdpi="41.780567"
       inkscape:export-ydpi="41.780567" />
    <path
       style="display:inline;fill:#000000;stroke-width:19.89999962;stroke-linejoin:round;stroke-miterlimit:4;stroke-dasharray:none"
       d="m 2706.4485,3349.4282 0,378.4687 c 3.262,1.7244 6.5901,12.3173 10,13.9286 l 0,-392.3973 z"
       id="path4430-3"
       inkscape:connector-curvature="0"
       sodipodi:nodetypes="ccccc"
       inkscape:export-filename="/home/michael/Dropbox/Jobs/15001_Yourcity App/city.png"
       inkscape:export-xdpi="41.780567"
       inkscape:export-ydpi="41.780567" />
    <path
       style="display:inline;fill:#000000;stroke-width:19.89999962;stroke-linejoin:round;stroke-miterlimit:4;stroke-dasharray:none"
       d="m 2922.636,3349.4282 0,462.0381 c 4.7381,6.9838 8.2027,17.9864 10,26.4393 l 0,-488.4774 z"
       id="path4438-0"
       inkscape:connector-curvature="0"
       sodipodi:nodetypes="ccccc"
       inkscape:export-filename="/home/michael/Dropbox/Jobs/15001_Yourcity App/city.png"
       inkscape:export-xdpi="41.780567"
       inkscape:export-ydpi="41.780567" />
    <path
       style="display:inline;fill:#000000;stroke-width:19.89999962;stroke-linejoin:round;stroke-miterlimit:4;stroke-dasharray:none"
       d="m 2931.1985,3869.9907 c -2.0855,17.8954 -5.2174,33.5805 0,48.3125 l 0,-48.3125 z"
       id="path4436-9"
       inkscape:export-filename="/home/michael/Dropbox/Jobs/15001_Yourcity App/city.png"
       inkscape:export-xdpi="41.780567"
       inkscape:export-ydpi="41.780567"
       inkscape:connector-curvature="0" />
    <path
       style="display:inline;fill:#000000;stroke-width:19.89999962;stroke-linejoin:round;stroke-miterlimit:4;stroke-dasharray:none"
       d="m 3169.1048,3347.5342 0,576.1127 c 3.3417,0.046 6.6707,0.024 10,0 l 0,-574.2187 z"
       id="path4444-5"
       inkscape:connector-curvature="0"
       sodipodi:nodetypes="ccccc"
       inkscape:export-filename="/home/michael/Dropbox/Jobs/15001_Yourcity App/city.png"
       inkscape:export-xdpi="41.780567"
       inkscape:export-ydpi="41.780567" />
    <path
       style="display:inline;fill:#000000;stroke-width:19.89999962;stroke-linejoin:round;stroke-miterlimit:4;stroke-dasharray:none"
       d="m 3330.7298,3349.4282 0,527.625 c 3.3921,-2.9431 6.7369,-5.9584 10,-9 l 0,-113.2813 c -5.4685,-9.5248 -5.0061,-19.2051 0,-28.0312 l 0,-377.3125 -10,0 z"
       id="path4450-8"
       inkscape:connector-curvature="0"
       inkscape:export-filename="/home/michael/Dropbox/Jobs/15001_Yourcity App/city.png"
       inkscape:export-xdpi="41.780567"
       inkscape:export-ydpi="41.780567" />
    <path
       style="display:inline;fill:#000000;stroke-width:19.89999962;stroke-linejoin:round;stroke-miterlimit:4;stroke-dasharray:none"
       d="m 3516.6047,3349.4282 0,380.875 c 3.4227,1.6658 6.7746,4.7916 10,6.5849 l 0,-387.4599 z"
       id="path4456-1"
       inkscape:connector-curvature="0"
       sodipodi:nodetypes="ccccc"
       inkscape:export-filename="/home/michael/Dropbox/Jobs/15001_Yourcity App/city.png"
       inkscape:export-xdpi="41.780567"
       inkscape:export-ydpi="41.780567" />
    <rect
       style="display:inline;fill:#ffffff;stroke-width:19.89999962;stroke-linejoin:round;stroke-miterlimit:4;stroke-dasharray:none"
       id="rect4460-5"
       width="36.36549"
       height="62.1563"
       x="3156.209"
       y="3556.0532"
       inkscape:export-filename="/home/michael/Dropbox/Jobs/15001_Yourcity App/city.png"
       inkscape:export-xdpi="41.780567"
       inkscape:export-ydpi="41.780567" />
    <rect
       style="display:inline;fill:#ffffff;stroke-width:19.89999962;stroke-linejoin:round;stroke-miterlimit:4;stroke-dasharray:none"
       id="rect4462-9"
       width="115.25"
       height="37.142857"
       x="2591.1985"
       y="3532.5195"
       inkscape:export-filename="/home/michael/Dropbox/Jobs/15001_Yourcity App/city.png"
       inkscape:export-xdpi="41.780567"
       inkscape:export-ydpi="41.780567" />
    <rect
       style="display:inline;fill:#ffffff;stroke-width:19.89999962;stroke-linejoin:round;stroke-miterlimit:4;stroke-dasharray:none"
       id="rect4464-9"
       width="175.87495"
       height="41.42857"
       x="3340.7297"
       y="3392.5195"
       inkscape:export-filename="/home/michael/Dropbox/Jobs/15001_Yourcity App/city.png"
       inkscape:export-xdpi="41.780567"
       inkscape:export-ydpi="41.780567" />
    <rect
       style="display:inline;fill:#ffffff;stroke-width:19.89999962;stroke-linejoin:round;stroke-miterlimit:4;stroke-dasharray:none"
       id="rect4466-1"
       width="236.46875"
       height="56.568542"
       x="2932.636"
       y="3445.8406"
       inkscape:export-filename="/home/michael/Dropbox/Jobs/15001_Yourcity App/city.png"
       inkscape:export-xdpi="41.780567"
       inkscape:export-ydpi="41.780567" />
    <g
       transform="translate(2359.1985,383.49065)"
       style="font-style:normal;font-variant:normal;font-weight:bold;font-stretch:normal;font-size:359.7088623px;line-height:125%;font-family:Comfortaa;-inkscape-font-specification:'Comfortaa Bold';letter-spacing:0px;word-spacing:0px;display:inline;fill:#000000;fill-opacity:1;stroke:none"
       id="text3771-7-6-4-8-4-7"
       inkscape:export-filename="/home/michael/Dropbox/Jobs/15001_Yourcity App/city.png"
       inkscape:export-xdpi="41.780567"
       inkscape:export-ydpi="41.780567">
      <path
         style="font-family:Comfortaa;-inkscape-font-specification:'Comfortaa Bold';fill:#000000"
         d="m 236.09375,2992 c -38.75781,3e-4 -71.88955,13.7647 -99.40625,41.2812 -27.39973,27.4 -41.093764,60.4925 -41.09375,99.25 -1.4e-5,38.875 13.69402,72.0067 41.09375,99.4063 27.39961,27.3998 60.53135,41.0937 99.40625,41.0937 32.78578,1e-4 62.23185,-10.4074 88.34375,-31.25 3.86381,-3.981 5.81225,-8.4571 5.8125,-13.375 -2.5e-4,-2.5759 -0.54016,-4.9627 -1.59375,-7.1874 -0.93698,-2.3418 -2.27511,-4.3294 -4.03125,-5.9688 l -20.8125,-18.1875 c -1.24714,-1.2469 -2.71415,-2.225 -4.40625,-2.9375 -1.69246,-0.8016 -3.50944,-1.1874 -5.46875,-1.1875 -3.2066,0.089 -5.96567,0.928 -8.28125,2.5313 -14.16192,11.4897 -30.57249,17.25 -49.1875,17.25 -21.82168,-1e-4 -40.39919,-7.6805 -55.71875,-23 -15.23063,-15.2306 -22.8438,-33.7409 -22.84375,-55.5626 -5e-5,-21.7322 7.61312,-40.2067 22.84375,-55.4374 15.40863,-15.4085 33.98613,-23.1249 55.71875,-23.125 9.17385,10e-5 17.8322,1.4312 25.9375,4.2812 8.19407,2.8503 15.6682,6.9374 22.4375,12.2812 3.02814,2.6724 6.27619,4.0002 9.75,4 1.95931,3e-4 3.77628,-0.3497 5.46875,-1.0624 1.78118,-0.7125 3.31535,-1.6904 4.5625,-2.9376 l 21.0625,-21.125 c 1.75615,-1.7561 3.09426,-3.7438 4.03125,-5.9687 0.93649,-2.2246 1.406,-4.6816 1.40625,-7.375 -2.5e-4,-5.386 -1.6279,-9.682 -4.90625,-12.8437 -26.81446,-21.8962 -56.87085,-32.8435 -90.125,-32.8438 z"
         id="path4524-9"
         inkscape:connector-curvature="0"
         sodipodi:nodetypes="cssssccccccccssssccccccccccc" />
      <path
         d="m 417.59739,3041.3635 c -6e-5,5.972 -2.10773,11.0655 -6.32301,15.2806 -4.21539,4.2156 -9.30892,6.3232 -15.2806,6.323 -5.97176,2e-4 -11.06529,-2.1074 -15.2806,-6.323 -4.21536,-4.2151 -6.32303,-9.3086 -6.32301,-15.2806 -2e-5,-5.9715 2.10765,-11.065 6.32301,-15.2806 4.21531,-4.2151 9.30884,-6.3227 15.2806,-6.323 5.97168,3e-4 11.06521,2.1079 15.2806,6.323 4.21528,4.2156 6.32295,9.3091 6.32301,15.2806 m -39.87007,213.2259 0,-159.8316 c -3e-5,-5.1519 1.75636,-9.4843 5.26917,-12.9973 3.62984,-3.6297 7.96227,-5.4446 12.99729,-5.4448 5.03494,2e-4 9.30882,1.8151 12.82166,5.4448 3.62981,3.513 5.50329,7.8454 5.62045,12.9973 l 0,159.8316 c -0.11716,5.1521 -1.99064,9.5431 -5.62045,13.1729 -3.51284,3.5128 -7.78672,5.2692 -12.82166,5.2692 -5.03502,0 -9.36745,-1.7564 -12.99729,-5.2692 -3.51281,-3.6298 -5.2692,-8.0208 -5.26917,-13.1729"
         style="font-family:Comfortaa;-inkscape-font-specification:'Comfortaa Bold';fill:#000000"
         id="path4526-5"
         inkscape:connector-curvature="0" />
      <path
         d="m 469.41092,3076.3157 8.25504,0 0,-66.0403 c -4e-5,-5.0347 1.75635,-9.3086 5.26917,-12.8216 3.62983,-3.6296 8.0208,-5.4446 13.17293,-5.4449 5.03493,3e-4 9.30881,1.8153 12.82166,5.4449 3.6298,3.513 5.44473,7.7869 5.44481,12.8216 l 0,66.0403 21.95489,0 c 5.03488,2e-4 9.30876,1.8151 12.82165,5.4448 3.51267,3.513 5.26906,7.7869 5.26917,12.8217 -1.1e-4,5.1522 -1.7565,9.5432 -5.26917,13.1729 -3.51289,3.513 -7.78677,5.2693 -12.82165,5.2692 l -21.95489,0 0,88.3464 c -8e-5,23.3015 11.70918,34.9523 35.12782,34.9522 5.03487,10e-5 9.30875,1.815 12.82165,5.4448 3.51266,3.5128 5.26905,7.7867 5.26917,12.8217 -1.2e-4,5.1521 -1.75651,9.5431 -5.26917,13.1729 -3.5129,3.5128 -7.78678,5.2692 -12.82165,5.2692 -47.89099,0 -71.83643,-23.8869 -71.83639,-71.6608 l 0,-88.3464 -8.25504,0 c -4.91792,10e-5 -9.1918,-1.7562 -12.82165,-5.2692 -3.5128,-3.6297 -5.26919,-8.0207 -5.26917,-13.1729 -2e-5,-5.0348 1.75637,-9.3087 5.26917,-12.8217 3.62985,-3.6297 7.90373,-5.4446 12.82165,-5.4448"
         style="font-family:Comfortaa;-inkscape-font-specification:'Comfortaa Bold';fill:#000000"
         id="path4528-0"
         inkscape:connector-curvature="0" />
      <path
         d="M 657.34477,3254.765 594.1147,3102.8372 c -1.17095,-2.6929 -1.75641,-5.4446 -1.7564,-8.255 -10e-6,-2.4588 0.46836,-4.8006 1.40512,-7.0256 0.93672,-2.2246 2.22474,-4.1566 3.86406,-5.7961 1.63927,-1.7562 3.5713,-3.1027 5.79609,-4.0397 2.22473,-0.9365 4.62513,-1.4049 7.2012,-1.4051 3.62984,2e-4 7.02552,1.054 10.18707,3.1615 3.16146,1.9908 5.56185,4.9766 7.2012,8.9576 l 49.35459,117.8538 49.35458,-118.2051 c 1.40496,-3.5126 3.39554,-6.3228 5.97173,-8.4306 2.69298,-2.2246 6.43994,-3.337 11.2409,-3.3372 2.57587,2e-4 4.97627,0.4686 7.2012,1.4051 2.22459,0.937 4.15662,2.2835 5.79609,4.0397 1.63912,1.6395 2.92714,3.5715 3.86406,5.7961 1.05366,2.225 1.58057,4.5668 1.58076,7.0256 -1.9e-4,2.5762 -0.6442,5.3279 -1.93203,8.255 l -100.99248,242.2063 c -1.52229,3.6298 -3.86414,6.5571 -7.02557,8.782 -3.16157,2.3417 -6.6158,3.5127 -10.3627,3.5128 -5.26923,-10e-5 -9.66021,-1.7565 -13.17293,-5.2692 -3.39574,-3.5129 -5.09358,-7.9038 -5.09354,-13.1729 -4e-5,-2.8103 0.58542,-5.5035 1.75639,-8.0794 l 31.79068,-76.0518"
         style="font-family:Comfortaa;-inkscape-font-specification:'Comfortaa Bold';fill:#000000"
         id="path4530-0"
         inkscape:connector-curvature="0" />
    </g>
    <path
       style="display:inline;fill:#000000;stroke-width:19.89999962;stroke-linejoin:round;stroke-miterlimit:4;stroke-dasharray:none"
       d="m 3153.9991,3346.3977 -226.4893,538.1721 c 0.283,9.8019 -0.5255,18.9711 -1.5573,27.6715 l 238.1015,-565.8436 -10.0549,0 z"
       id="path4510-9"
       inkscape:connector-curvature="0"
       inkscape:export-filename="/home/michael/Dropbox/Jobs/15001_Yourcity App/city.png"
       inkscape:export-xdpi="41.780567"
       inkscape:export-ydpi="41.780567" />
    <path
       style="display:inline;fill:#000000"
       d="m 2390.7855,3327.6001 c -2.4471,9e-4 -4.864,1.1686 -6.5938,3.1876 -1.7297,2.019 -2.7508,4.8643 -2.75,7.7187 l 0,390.2813 -0.1875,142.7812 0.094,0 18.7813,0.125 c 0,0 22.6766,-1.7234 29.375,-5.4688 24.8577,-19.6511 69.576,-20.1062 102.75,-39.9687 45.413,-10.9781 77.9149,-50.2213 124.625,-57.4063 30.2301,-3.5828 60.2079,14.3552 90.9375,15.6563 48.853,6.0604 105.4551,-2.5374 147,29.125 30.7284,30.6909 0,70.7966 14.3125,103.9063 7.0462,36.6323 35.5815,61.5961 72.5937,62.6562 18.9954,1.0944 37.4623,-6.7798 53.2813,-16.4688 42.5911,-35.4335 101.1189,-6.3807 150,-22.2187 38.6412,-15.2797 78.26,-14.1715 107.75,-36.3125 42.9494,0.1858 53.3491,-40.4059 78,-56.3125 26.6602,-6.743 11.1444,-12.5766 8.0313,-35.5937 9.2548,-36.245 -65.6173,-76.5521 -12.1876,-94.375 17.8459,-20.0238 6.4115,-53.5096 12.5938,-78.0938 5.7184,-6.5252 15.3893,-9.7688 26.2188,-9.75 15.8274,0.028 34.1768,7.022 46.5312,20.9062 -31.8045,-23.1149 10.9604,31.3738 17.25,51.375 23.9377,28.0924 64.1704,39.1092 86.5312,73.0938 -10.4398,36.1361 37.494,59.0567 52.8438,22.6875 1.4652,-32.8261 38.4448,-58.8251 38.4448,-58.8251 10.2698,-4.6524 21.0447,-7.7895 27.2739,-7.6436 l 0,-394.1563 c 7e-4,-2.8544 -1.0203,-5.6998 -2.75,-7.7187 -1.7297,-2.019 -4.1468,-3.1867 -6.5938,-3.1876 z m 9.3437,21.8126 1255.4686,0 0,376.1562 c -35.8282,2.2951 -47.0015,51.5068 -62.3123,77.6562 -38.0811,31.4431 -20.6133,-32.6705 -40,-46.1874 -17.4557,2.1174 -30.7006,-17.2485 -13.1563,-11.5 -19.8143,-23.1447 -61.6094,-27.2765 -71.75,-62.125 -15.1066,-32.7717 -19.9977,-101.9563 -70.9687,-75.4688 -8.4462,16.7481 -39.0985,20.0045 -10.6876,-6.1562 22.379,-24.9721 11.941,-16.5476 -6.2187,1.3437 -26.0568,27.1685 -4.1033,66.8146 -17.6563,100.6875 -28.2579,15.5251 -38.4197,43.9646 -10.0624,67.1562 34.6015,40.4222 7.7592,75.8453 -22.0626,106.0626 -30.271,15.2732 -84.1262,15.5873 -101.875,38.1874 -30.4104,13.1366 -73.0821,7.159 -106.5937,6.7813 -25.147,-5.2695 -57.6351,-4.3888 -84.2187,9.1563 -29.5366,27.5304 -90.6099,49.9805 -104.9688,-8.4063 -11.3762,-23.6327 1.7496,-49.3625 -0.7812,-82.7813 -3.0062,-52.1381 -57.1777,-79.6592 -103.9063,-80.9374 -43.9822,3.2871 -90.0506,-10.5928 -124.9687,-33.0313 -24.7009,-8.6671 -48.8626,-4.2297 -73.9688,-6.375 -42.0116,-4.107 -85.5017,-3.9373 -128.0625,-0.125 -36.9441,3.5844 -88.8674,24.3576 -101.25,-28.2813 z m 1021.9375,257.3437 c 10.6972,-0.021 21.2789,5.5207 22.1562,22.4687 5.5015,26.9442 -24.2625,-19.6375 -25.8124,-2.6874 -34.8055,-2.0512 -15.4128,-19.7441 3.6562,-19.7813 z m -1021.9375,130.7813 c 4.7657,3.1313 9.5764,13.5909 5.625,25.1874 -0.2821,6.9784 -3.0267,7.1454 -5.625,5.0313 z m 153.5625,12.6874 c 2.0339,0.035 3.402,2.5147 2.625,9.5626 -20.9241,12.3481 -8.7267,-9.6681 -2.625,-9.5626 z"
       id="path2996-3-4-5"
       inkscape:connector-curvature="0"
       sodipodi:nodetypes="ccccccccccccccccccccccccccccccccccccccccccccccccccccccccccccccccccc"
       inkscape:export-filename="/home/michael/Dropbox/Jobs/15001_Yourcity App/city.png"
       inkscape:export-xdpi="41.780567"
       inkscape:export-ydpi="41.780567" />
  </g>
  <g
     inkscape:label="Layer 1"
     inkscape:groupmode="layer"
     id="layer1"
     transform="translate(241.74428,-2774.1001)"
     style="display:inline">
    <path
       style="display:inline;fill:#037346;fill-opacity:1;stroke-width:19.89999962;stroke-linejoin:round;stroke-miterlimit:4;stroke-dasharray:none"
       d="m 29.53125,20 c -2.4471,9e-4 -4.86395,1.1685 -6.59375,3.1875 -1.7297,2.019 -2.7508,4.86435 -2.75,7.71875 l 0,390.28125 L 20,563.96875 l 0.09375,0 18.78125,0.125 c 0,0 22.6766,-1.72335 29.375,-5.46875 24.8577,-19.6511 69.576,-20.10635 102.75,-39.96875 45.413,-10.9781 77.9149,-50.22125 124.625,-57.40625 30.2301,-3.5828 60.2079,14.35515 90.9375,15.65625 48.853,6.0604 105.4551,-2.5374 147,29.125 30.7284,30.6909 0,70.79655 14.3125,103.90625 7.0462,36.6323 35.58155,61.59615 72.59375,62.65625 18.9954,1.0944 37.46225,-6.77975 53.28125,-16.46875 42.5911,-35.4335 101.1189,-6.38075 150,-22.21875 38.6412,-15.2797 77.63389,-31.30145 119.87183,-39.84803 42.23794,-8.54659 39.87979,-41.30085 65.87817,-52.77697 25.9984,-11.47612 6.4211,-8.97347 9.5464,-39.12928 3.1254,-30.15581 -50.4205,-71.34266 -13.7026,-90.83947 36.7179,-19.49681 8.5354,-58.66828 14.614,-74.55822 6.0786,-15.88993 14.127,-9.51626 24.956,-9.49746 15.8277,0.028 35.3107,11.85324 41.4174,19.13849 6.1068,7.28524 6.2077,24.85457 21.6063,49.35469 15.3986,24.50012 77.1132,38.78551 83.6742,77.37946 6.5609,38.59396 39.839,56.04625 55.7008,18.40179 15.8618,-37.64446 33.3026,-56.4863 38.4375,-58.8125 5.1349,-2.3262 21.0521,-7.80215 27.2812,-7.65625 l 0,-394.15625 c 0,-2.8544 -1.0201,-5.69985 -2.75,-7.71875 -1.7295,-2.019 -4.1467,-3.1866 -6.5937,-3.1875 z m 9.34375,21.8125 181.0625,0 0,26.71875 C 195.455,70.760848 173.37528,78.895438 153.71875,92.9375 l -114.84375,0 z m 191.0625,0 115.25,0 0,51.125 -31.375,0 C 289.68089,76.242385 263.06868,67.875262 234.03125,67.875 c -1.37072,1.1e-5 -2.7371,0.05931 -4.09375,0.09375 z m 125.25,0 206.1875,0 0,51.125 -49.0625,0 0,-6.78125 c -8e-5,-5.0347 -1.8077,-9.2995 -5.4375,-12.8125 -3.51285,-3.6296 -7.77757,-5.4372 -12.8125,-5.4375 -5.15213,3e-4 -9.55767,1.8079 -13.1875,5.4375 -3.51282,3.513 -5.25004,7.7778 -5.25,12.8125 l 0,6.78125 -120.4375,0 z m 216.1875,0 220.125,0 -21.53125,51.125 -198.59375,0 z m 230.1875,0 6.28125,0 0,51.125 -27.8125,0 z m 16.28125,0 151.625,0 0,51.125 -151.625,0 z m 161.625,0 175.87505,0 0,51.125 0,10 0,64.75 -175.87505,0 z m 185.87505,0 129,0 0,51.125 -129,0 z m -1126.4688,61.125 102.375,0 c -2.23803,1.99749 -4.4567,4.05047 -6.625,6.21875 -17.24794,17.24811 -29.04873,36.77856 -35.4375,58.53125 l -60.3125,0 z m 287.15625,0 19.15625,0 0,64.75 -115.25,0 0,-36.09375 c 1.47764,-0.0743 2.96072,-0.0937 4.46875,-0.0937 9.17385,1e-4 17.8322,1.4 25.9375,4.25 8.19407,2.8503 15.6682,6.93745 22.4375,12.28125 3.02814,2.6724 6.27619,4.0002 9.75,4 1.95931,3e-4 3.77628,-0.31855 5.46875,-1.03125 1.78118,-0.7125 3.31535,-1.72155 4.5625,-2.96875 l 21.0625,-21.125 c 1.75615,-1.7561 3.09426,-3.74385 4.03125,-5.96875 0.93649,-2.2246 1.406,-4.6816 1.40625,-7.375 -2e-4,-4.22791 -1.01419,-7.76183 -3.03125,-10.625 z m 29.15625,0 17.03791,0 0.11834,14.3125 c 0.0494,5.9718 2.09714,11.06615 6.3125,15.28125 4.21531,4.2156 9.30949,6.3127 15.28125,6.3125 5.97168,2e-4 11.06586,-2.0969 15.28125,-6.3125 4.21528,-4.2151 6.31244,-9.30925 6.3125,-15.28125 l -0.10295,-14.3125 60.1967,0 0,49.28125 -8.28125,0 c -4.91792,2e-4 -9.18265,1.8078 -12.8125,5.4375 -2.84282,2.84298 -4.52031,6.19161 -5.0625,10.03125 l -37.375,0 c -0.65213,-3.87042 -2.43332,-7.21448 -5.34375,-10.03125 -3.51284,-3.6297 -7.77756,-5.4373 -12.8125,-5.4375 -5.03502,2e-4 -9.37016,1.8078 -13,5.4375 -2.81599,2.81614 -4.47267,6.16194 -5.03125,10.03125 l -20.71875,0 z m 157.125,0 49.0625,0 0,64.75 -9.21875,0 c -0.54225,-3.83964 -2.21979,-7.18827 -5.0625,-10.03125 -3.51289,-3.6297 -7.77762,-5.4373 -12.8125,-5.4375 l -21.96875,0 z m 59.0625,0 194.375,0 -20.84375,49.53125 c -0.98077,-0.15205 -1.99353,-0.24992 -3.03125,-0.25 -4.80096,2e-4 -8.55702,1.0879 -11.25,3.3125 -2.57619,2.1078 -4.56379,4.9249 -5.96875,8.4375 l -31.09375,74.46875 -36.5625,0 -31.03125,-74.125 c -1.63935,-3.981 -4.05729,-6.9467 -7.21875,-8.9375 -3.16155,-2.1075 -6.55766,-3.15605 -10.1875,-3.15625 -2.57607,2e-4 -4.96277,0.46975 -7.1875,1.40625 -2.22479,0.937 -4.17323,2.27505 -5.8125,4.03125 -1.63932,1.6395 -2.90703,3.55665 -3.84375,5.78125 -0.93676,2.225 -1.40626,4.57245 -1.40625,7.03125 -10e-6,2.8104 0.57905,5.5571 1.75,8.25 l 24.84375,59.71875 -45.53125,0 0,-60.75 0,-10 z m 204.4375,0 32.03125,0 0,64.75 0,10 0,60.75 -74.375,0 24.90625,-59.71875 c 1.28783,-2.9271 1.93731,-5.6738 1.9375,-8.25 -1.9e-4,-2.4588 -0.50884,-4.80625 -1.5625,-7.03125 -0.93692,-2.2246 -2.23588,-4.14175 -3.875,-5.78125 -0.47166,-0.50525 -0.97991,-0.96882 -1.5,-1.40625 z m 42.03125,0 151.625,0 0,64.75 -151.625,0 z m 347.50005,0 129,0 0,64.75 -129,0 z m -945.4063,29.8125 0,34.9375 -51.90625,0 c 3.00322,-4.58949 6.54074,-8.94698 10.65625,-13.0625 11.86383,-11.86373 25.63531,-19.14236 41.25,-21.875 z m -181.0625,44.9375 57.78125,0 c -2.077726,9.81441 -3.125003,20.04434 -3.125,30.71875 -3e-6,10.41698 1.001983,20.43883 2.96875,30.03125 l -57.625,0 z m 123.65625,0 57.40625,0 0,60.75 -59.09375,0 c -3.31805,-8.74621 -5.00002,-18.22025 -5,-28.40625 -3e-5,-11.73918 2.24396,-22.5035 6.6875,-32.34375 z m 67.40625,0 115.25,0 0,60.75 0,10 0,62.1875 -18.1875,0 c 0.77915,-2.02105 1.18739,-4.14057 1.1875,-6.34375 -2.5e-4,-2.5759 -0.54016,-4.93155 -1.59375,-7.15625 -0.93698,-2.3418 -2.27511,-4.3606 -4.03125,-6 L 301.75,272.9375 c -1.24714,-1.2469 -2.71415,-2.225 -4.40625,-2.9375 -1.69246,-0.8016 -3.50944,-1.1874 -5.46875,-1.1875 -3.2066,0.089 -5.96567,0.9592 -8.28125,2.5625 -14.16192,11.4897 -30.57249,17.25 -49.1875,17.25 -1.51304,-10e-6 -2.98691,-0.0512 -4.46875,-0.125 l 0,-40.0625 0,-10 z m 125.25,0 20.46875,0 0,60.75 -20.46875,0 z m 57.1875,0 38.25,0 c 0.87811,2.17023 2.1671,4.17172 3.90625,5.96875 3.62985,3.513 7.89458,5.2501 12.8125,5.25 l 8.28125,0 0,49.53125 -63.25,0 z m 138.65625,0 10.34375,0 0,60.75 -49.0625,0 0,-49.53125 21.96875,0 c 5.03488,1e-4 9.29961,-1.737 12.8125,-5.25 1.7392,-1.79714 3.05939,-3.79836 3.9375,-5.96875 z m 266.8125,0 151.625,0 0,60.75 -151.625,0 z m 161.625,0 175.87505,0 0,60.75 -175.87505,0 z m 185.87505,0 129,0 0,60.75 -129,0 z m -1126.4688,70.75 60.09375,0 c 6.3318,22.12028 18.19478,41.91362 35.65625,59.375 0.95611,0.95612 1.93618,1.88976 2.90625,2.8125 l -98.65625,0 z m 126.6875,0 54.375,0 0,38.9375 c -15.67836,-2.71047 -29.43863,-9.93868 -41.25,-21.75 -5.31998,-5.31997 -9.6636,-11.06589 -13.125,-17.1875 z m 189.625,0 20.46875,0 0,62.1875 -20.46875,0 z m 57.1875,0 63.25,0 0,28.8125 c -10e-6,12.85272 1.72124,23.98008 5.1875,33.375 l -68.4375,0 z m 99.9375,0 49.0625,0 0,62.1875 -27.28125,0 c -14.51936,0 -21.78131,-15.0275 -21.78125,-33.375 z m 59.0625,0 49.6875,0 25.875,62.1875 -75.5625,0 z m 89.8125,0 28.21875,0 -14.09375,33.75 z m 68.125,0 78.53125,0 10,0 151.625,0 0,62.1875 -151.625,0 -10,0 -104.46875,0 z m 250.15625,0 175.87505,0 0,60.71875 -74.25,0 c -9.3654,-13.7594 -32.1927,-26.40678 -44.9376,-8.8125 -12.7449,17.59428 -23.4681,6.83374 -9.6772,-2.36818 13.7908,-9.20191 10.9307,-20.33562 -7.229,-2.44432 -4.8229,5.02868 -7.9996,10.48211 -10.0625,16.25 0.1369,-0.38508 0.258,-0.77332 0.4063,-1.15625 l -30.12505,0 z m 185.87505,0 129,0 0,60.71875 -129,0 z m -104.5313,50.71875 c 10.6972,-0.021 20.7815,18.25463 14.4777,25.86161 -4.0679,4.90895 -6.7625,-6.15546 -18.134,-6.08036 -34.8049,-2.0512 -15.4127,-19.74405 3.6563,-19.78125 z m -1021.9375,20 108.40625,0 c 21.18735,16.96901 45.38931,26.70308 72.65625,29.15625 l 0,31.59375 -181.0625,0 z m 281.625,0 24.6875,0 0,60.75 -115.25,0 0,-31.0625 c 1.35914,0.0342 2.72028,0.0625 4.09375,0.0625 31.99569,10e-5 60.82928,-9.90048 86.46875,-29.75 z m 34.6875,0 20.46875,0 0,11.3125 c -3e-5,5.1521 1.76844,9.5577 5.28125,13.1875 3.62984,3.5128 7.96498,5.28125 13,5.28125 5.03494,0 9.29966,-1.76845 12.8125,-5.28125 3.62981,-3.6298 5.50784,-8.0354 5.625,-13.1875 l 0,-11.3125 72.34375,0 c 10.9751,19.83384 31.86116,29.52871 62.71875,29.52871 l 13.9375,-0.72287 0,31.94416 -206.1875,0 z m 216.1875,0 79.125,0 4.78125,11.5 -20.59375,49.25 -63.3125,0 z m 128.46875,0 108,0 0,60.75 -133.34375,0 z m 118,0 151.625,0 0,60.75 -151.625,0 z m 161.625,0 27.68745,0 c -3.8423,18.84525 1.0879,40.29164 -1.5,60.75 l -26.18745,0 z m 107.25005,0 68.625,0 0,60.75 -46.8438,0 c -0.5105,-1.3131 -0.9646,-2.68335 -1.375,-4.09375 -7.1066,-15.4168 -11.9603,-38.87395 -20.4062,-56.65625 z m 78.625,0 129,0 0,60.75 -129,0 z M 38.875,382.59375 c 0.517716,2.57043 1.098081,4.9418 1.75,7.21875 -0.64765,-1.94134 -1.235147,-3.99884 -1.75,-6.1875 z m 1.78125,7.3125 179.28125,0 0,19.25 c 3.33038,0.064 6.67633,0.1501 10,0.25 l 0,-19.5 115.25,0 0,30.375 c -1.01262,-0.62513 -2.03646,-1.23575 -3.03125,-1.875 -24.7009,-8.6671 -48.86255,-4.2297 -73.96875,-6.375 -42.0116,-4.107 -85.5017,-3.9373 -128.0625,-0.125 -35.38355,3.43299 -84.503013,22.63022 -99.46875,-22 z m 314.53125,0 206.1875,0 0,60.75 -128.78125,0 C 405.21639,447.51511 378.37092,438.61929 355.1875,426.0625 Z m 216.1875,0 59.15625,0 -7.03125,16.8125 c -1.17097,2.5759 -1.75004,5.2522 -1.75,8.0625 -4e-5,5.2691 1.69801,9.6746 5.09375,13.1875 0.49894,0.49894 0.99687,0.94693 1.53125,1.375 l -8.96875,21.3125 -48.03125,0 z m 98.96875,0 137.5,0 0,60.75 -178.34375,0 L 636.9375,433 c 0.98954,0.14236 2.00178,0.21873 3.0625,0.21875 3.7469,-10e-5 7.21343,-1.1583 10.375,-3.5 3.16143,-2.2249 5.50896,-5.15145 7.03125,-8.78125 z m 147.5,0 151.625,0 0,60.75 -151.625,0 z m 161.625,0 24.21875,0 c -0.5837,2.12329 -1.2597,4.22785 -2.0937,6.3125 -9.88158,5.42883 -17.54304,12.43702 -22.12505,20.25 z m 134.46875,0 41.4063,0 0,30.28125 c -15.0408,-8.5595 -31.5084,-16.17956 -41.4063,-30.28125 z m 51.4063,0 129,0 0,28.0625 c -18.9661,1.2149 -31.0179,15.5594 -40.4376,32.6875 l -60.375,0 c -0.4755,-0.4408 0.2276,0.10268 -7.5714,-6.57589 -7.7991,-6.67857 0,0 -7.7991,-6.67857 -7.799,-6.67858 -7.7499,-7.68263 -12.8169,-11.08929 z M 979.46875,449.8125 c 0.16571,0.27939 0.32526,0.56487 0.5,0.84375 l -0.5,0 z m 0,10.84375 8.96875,0 c 0.98417,0.9131 1.99514,1.82025 3.09375,2.71875 17.67835,20.6522 19.28945,39.9852 12.68755,58 l -24.75005,0 z m 219.90625,0 49.4062,0 c -9.2048,13.51693 -0.3925,14.52057 -16.75,34.96875 -16.3575,20.44818 -25.0962,-12.85885 -32.6562,-34.96875 z m -229.90625,0.0312 0,60.6875 -151.625,0 0,-60.53125 z m -161.625,0.15625 0,60.53125 -208.09375,0 25.375,-60.3125 z m -192.8125,0.21875 -25.375,60.3125 -18.28125,0 0,-60.25 z m -53.65625,0.0625 0,38.9375 c -10.36222,-17.82273 -27.96144,-30.81354 -47.84375,-38.875 z m 9.59375,70.25 14.46875,0 -16.46875,39.15625 c 1.47688,-11.65608 3.11693,-24.23276 2.0625,-38.15625 -0.0193,-0.3338 -0.0391,-0.6682 -0.0625,-1 z m 24.5625,0 212.3125,0 0,60.75 -237.875,0 z m 222.3125,0 151.625,0 0,38.0625 C 948.43468,580.05025 916.03227,583.462 892.25,592.125 l -74.40625,0 z m 161.625,0 20.21875,0 c -5.14546,9.56525 -12.30639,18.73247 -20.21875,27.5 z m -412.0625,66.8125 c 0.10434,1.31815 0.23149,2.63458 0.40625,3.9375 l 240.03125,0 0,13.90625 c -16.17627,-0.26009 -32.3602,-1.46176 -46.84375,-1.625 -25.147,-5.2695 -57.63515,-4.38885 -84.21875,9.15625 -29.5366,27.5304 -90.60985,49.98045 -104.96875,-8.40625 -2.05136,-4.2615 -3.30657,-8.60065 -4,-13.03125 -0.19541,-1.24858 -0.35721,-2.51597 -0.46875,-3.78125 -9.1e-4,-0.0103 9e-4,-0.0209 0,-0.0312 z M 873.5,601.8125 c -2.24945,1.7577 -4.2423,3.6937 -5.90625,5.8125 -14.5564,6.28804 -31.92191,8.16838 -49.75,8.40625 l 0,-13.90625 55.21875,0 c 0.12044,-0.1128 0.29955,-0.2008 0.4375,-0.3125 z"
       transform="translate(-261.74428,2754.1001)"
       id="path4456"
       inkscape:connector-curvature="0"
       sodipodi:nodetypes="cccccccccccccccczzzzzczzzzzccccccccccccccccccccccccccsccccccccccccccccccccccccccccccccsccccccccccccccccccccscccccccccccccccccccccccccccccccccccccccscccccccccccccccccccccccccccccccscccscccccccsccccccccccccccsccccccccccccccccccccccccccccccccccccccccccsccccccsccccccccscccccccscccccccccccccccccccccccczzcccccccccccaccccccccccccscccscsscccsccccccccccccccccccccccccccccccccccccccccccccccccccccccccccccccccccccccccccccccccccccccccccccccczzcccccccccccccczccccccccccccccccccccccccccccccccccccccccccccccscccccccccc" />
  </g>
</svg>
